# xmcd
#
# Track frame offsets:
#	150
#	25495
#	48895
#	86170
#	102983
#	146095
#	162370
#
# Disc length: 2576 seconds
# Revision: 5
# Processed by: cddbd v1.5.2PL0 Copyright (c) Steve Scherf et al.
# Submitted via: dBpowerAMP V12.0
#
DISCID=5b0a0e07
DTITLE=Albert Collins - Albert Collins and the Icebreakers ~ Live In Japan [dBP-LITE-FLAC@]
DYEAR=1984
DGENRE=Blues
TTITLE0=Listen Here!
TTITLE1=Tired Man
TTITLE2=If Trouble Was Money
TTITLE3=Jealous Man
TTITLE4=Stormy Monday
TTITLE5=Skatin'
TTITLE6=All About My Girl
EXTD=
EXTT0=
EXTT1=
EXTT2=
EXTT3=
EXTT4=
EXTT5=
EXTT6=
PLAYORDER=
